# xmcd
#
# Track frame offsets: 
#        150
#        11059
#        29435
#        46850
#        60942
#        79012
#        94323
#        110261
#        124764
#        139393
#        152587
#        164610
#
# Disc length: 2322 seconds
#
# Revision: 0
# Processed by: cddbd v1.5.2PL0 Copyright (c) Steve Scherf et al.
# Submitted via: ExactAudioCopyFreeDBPlugin 1.0
#
DISCID=9609100c
DTITLE=Waldemar Matuška - Gold
DYEAR=2006
DGENRE=Country
TTITLE0=Tereza
TTITLE1=Ach, ta laska nebeska
TTITLE2=Jo, tresne zraly
TTITLE3=Tisic mil
TTITLE4=Ruze z Texasu
TTITLE5=Pojd se mnou, lasko ma
TTITLE6=Slavici z Madridu
TTITLE7=Sbohem, lasko
TTITLE8=Jezabel
TTITLE9=Kladivo
TTITLE10=Pisen pro Kristynku
TTITLE11=Holky ja mam vsechny rad
EXTD=
EXTT0=
EXTT1=
EXTT2=
EXTT3=
EXTT4=
EXTT5=
EXTT6=
EXTT7=
EXTT8=
EXTT9=
EXTT10=
EXTT11=
PLAYORDER=
